PathFileType	4	(X/Y/Z)	..\data\2015026\dynamic\2015026_C5_03.trc
DataRate	CameraRate	NumFrames	NumMarkers	Units	OrigDataRate	OrigDataStartFrame	OrigNumFrames
100.000000	100.000000	4	48	mm	100.000000	0	136
Frame#	Time	L_IAS			L_IPS			R_IPS			R_IAS			L_FTC			L_FLE			L_FAX			L_TTC			L_FAL			L_FCC			L_FM1			L_FM2			L_FM5			R_FTC			R_FLE			R_FAX			R_TTC			R_FAL			R_FCC			R_FM1			R_FM2			R_FM5			CV7			TV10			SXS			SJN			L_SIA			L_SRS			L_SAA			L_SAE			L_HLE			L_HME			L_UOA			L_RSP			L_UHE			L_HM2			L_HM5			R_SIA			R_SRS			R_SAA			R_SAE			R_HLE			R_HME			R_UOA			R_RSP			R_UHE			R_HM2			R_HM5			
		X1	Y1	Z1	X2	Y2	Z2	X3	Y3	Z3	X4	Y4	Z4	X5	Y5	Z5	X6	Y6	Z6	X7	Y7	Z7	X8	Y8	Z8	X9	Y9	Z9	X10	Y10	Z10	X11	Y11	Z11	X12	Y12	Z12	X13	Y13	Z13	X14	Y14	Z14	X15	Y15	Z15	X16	Y16	Z16	X17	Y17	Z17	X18	Y18	Z18	X19	Y19	Z19	X20	Y20	Z20	X21	Y21	Z21	X22	Y22	Z22	X23	Y23	Z23	X24	Y24	Z24	X25	Y25	Z25	X26	Y26	Z26	X27	Y27	Z27	X28	Y28	Z28	X29	Y29	Z29	X30	Y30	Z30	X31	Y31	Z31	X32	Y32	Z32	X33	Y33	Z33	X34	Y34	Z34	X35	Y35	Z35	X36	Y36	Z36	X37	Y37	Z37	X38	Y38	Z38	X39	Y39	Z39	X40	Y40	Z40	X41	Y41	Z41	X42	Y42	Z42	X43	Y43	Z43	X44	Y44	Z44	X45	Y45	Z45	X46	Y46	Z46	X47	Y47	Z47	X48	Y48	Z48	

1	0	-1348.958251953125	913.930847167969	61.58760833740219	-1535.494140625	926.970642089844	142.9728240966795	-1516.95849609375	923.2896728515627	253.903350830078	-1325.86669921875	902.9177856445315	282.3348083496093	-1447.805419921875	844.575134277344	6.157721042632881	-1562.3955078125	447.8585510253907	71.45245361328108	-1602.075805664063	406.1084899902345	67.19688415527325	-1547.490356445313	376.8511352539063	123.5127334594725	-1711.0458984375	79.7044143676758	94.06069183349589	-1767.020263671875	41.24729919433594	126.0232772827147	-1575.668334960938	14.13924598693848	174.2782897949217	-1562.45947265625	31.31333923339844	118.9350051879881	-1608.8408203125	15.76426219940186	62.86781311035138	-1405.895385742188	815.211608886719	353.565948486328	-1212.0400390625	466.0796203613282	286.5199584960936	-1218.765869140625	400.9091796875001	287.7679748535155	-1153.81689453125	410.3260498046876	247.0944366455077	-1103.129150390625	67.21960449218751	272.4103088378906	-1124.833984375	16.87478637695313	221.9824981689452	-940.3100585937502	85.77709960937501	221.2895965576171	-954.5229492187502	90.54154205322267	270.8662414550781	-988.598083496094	57.50155639648439	308.0856018066406	-1471.585083007813	1405.419067382813	194.9626617431639	-1550.819458007813	1171.03125	177.4738006591795	-1325.859619140625	1102.44580078125	172.0192260742186	-1351.547973632813	1320.6083984375	180.2687988281249	-1549.455688476563	1210.49853515625	96.39119720458969	-1519.27880859375	1340.349609375	101.1218948364256	-1473.784790039063	1353.900390625	19.19414901733381	-1432.237060546875	1355.802368164063	2.960202217101876	-1388.518188476563	1050.0146484375	-78.29852294921893	-1435.292602539063	1025.409790039063	-15.97320461273211	-1423.58740234375	1018.177978515625	-61.74755477905293	-1221.820434570313	886.5139770507815	15.25562572479233	-1266.493896484375	851.0850219726565	-36.51504898071305	-1159.49658203125	834.016296386719	22.47645759582506	-1229.73681640625	787.0286254882815	-27.4358577728273	-1549.998779296875	1203.162475585938	258.8269958496093	-1517.388305664063	1333.767211914063	235.3234405517577	-1470.8466796875	1343.729125976563	339.4125976562499	-1419.888549804688	1339.47265625	365.8118286132811	-1519.035034179688	1044.809692382813	423.1073303222656	-1545.356567382813	1034.352172851563	350.1287231445311	-1554.249877929688	1034.040771484375	395.5483703613281	-1509.053344726563	791.7195434570315	438.0325927734374	-1583.609741210938	815.4155273437502	447.2597656249999	-1534.730224609375	704.1467895507814	445.4669799804687	-1620.99755859375	758.3793945312501	450.8327636718749	
2	0.01	-1330.647338867188	911.4376220703127	60.67671585082993	-1516.890991210938	924.3531494140627	144.2279968261717	-1497.806030273438	920.733581542969	254.9858093261718	-1306.447021484375	900.302429199219	281.4729003906249	-1431.265991210938	842.2192993164065	7.202177047729319	-1547.943237304688	446.644989013672	71.70219421386702	-1588.853393554688	405.8983154296876	67.62194824218732	-1534.993286132813	374.8660278320313	123.9520263671873	-1709.236572265625	83.40794372558595	93.62527465820293	-1766.499755859375	46.65629196166993	125.6443710327147	-1576.0439453125	13.57891845703125	174.4725646972655	-1562.562133789063	30.92878150939942	119.0830917358397	-1609.004516601563	15.55351829528809	63.0587615966795	-1385.740234375	812.603698730469	353.7396545410155	-1191.313110351563	464.9086914062501	285.7276306152343	-1196.827392578125	399.2837829589845	287.6452026367186	-1132.559814453125	409.8396606445314	245.7895050048827	-1073.040771484375	67.89297485351564	273.2979736328124	-1094.670532226563	16.78957557678223	223.5428924560546	-910.9599609375002	89.2158660888672	219.3425598144531	-924.4403076171877	93.82308197021486	269.2889099121093	-957.6098632812502	60.09286499023439	307.0518188476562	-1453.585693359375	1402.677368164063	195.9925994873046	-1532.734375	1168.268432617188	178.4157714843748	-1307.495483398438	1099.734497070313	171.9006042480467	-1333.436767578125	1317.916137695313	180.6397399902342	-1531.52880859375	1207.888427734375	97.50456237792953	-1501.526489257813	1337.721801757813	102.0601425170897	-1456.244140625	1351.471801757813	19.96326828002912	-1414.798706054688	1353.514526367188	3.806215763091869	-1369.102783203125	1048.530517578125	-78.99078369140643	-1416.611083984375	1023.19677734375	-17.53029251098651	-1404.076538085938	1016.233032226563	-62.99802017211933	-1201.013427734375	887.805358886719	16.44047164916978	-1244.2138671875	851.5379028320315	-36.09453201293961	-1137.631958007813	837.002136230469	24.53228759765612	-1205.852783203125	788.164978027344	-26.44658851623551	-1531.504638671875	1200.147705078125	259.5293884277343	-1499.189697265625	1330.890502929688	236.1535034179686	-1452.34130859375	1340.884521484375	340.0984802246093	-1401.36767578125	1336.594116210938	366.4359741210936	-1502.496337890625	1042.76513671875	423.7651367187499	-1528.422607421875	1032.12548828125	350.7261657714843	-1537.66552734375	1032.310913085938	396.0575561523437	-1495.791381835938	789.6416015625002	440.2452697753906	-1570.069702148438	814.4954833984377	448.6568908691406	-1523.088012695313	702.5640869140626	449.2052917480468	-1608.338745117188	758.4024047851564	453.0024719238281	
3	0.02	-1312.017578125	909.3759765625002	59.97974777221665	-1497.974609375	922.123474121094	145.3181915283202	-1478.509155273438	918.7235107421877	255.9609069824218	-1286.928344726563	898.2322998046877	280.8457031249999	-1413.931762695313	840.0683593750002	8.173999786376783	-1531.939697265625	445.2766113281251	71.90081024169905	-1574.120849609375	405.6276245117189	68.00008392333966	-1521.116455078125	372.7418212890626	124.3659057617186	-1706.711791992188	87.96527099609376	93.04476928710918	-1765.242431640625	53.34155654907228	125.2488861083983	-1576.82373046875	13.06379508972168	174.7235107421873	-1563.0107421875	30.42778587341309	119.3305587768553	-1609.3603515625	15.47058391571045	63.33140182495099	-1365.52783203125	810.6547851562502	354.0093688964843	-1170.53125	464.084197998047	284.9747924804686	-1175.225219726563	398.1140747070314	287.4689636230468	-1111.758911132813	409.2994079589845	244.3704833984374	-1047.321533203125	68.35732269287111	273.7652282714843	-1069.517700195313	16.86264991760254	224.7940979003905	-886.0969848632815	90.61829376220705	216.7325439453124	-898.6429443359377	95.21498107910158	267.1007080078124	-931.2619628906252	61.22760009765626	305.4870910644531	-1435.432373046875	1400.345458984375	197.1932220458983	-1514.3740234375	1165.855346679688	179.4714355468748	-1288.9267578125	1097.556640625	171.8659057617186	-1315.182861328125	1315.684936523438	181.1361694335936	-1513.432861328125	1205.641723632813	98.81875610351547	-1483.6591796875	1335.467529296875	103.2162933349608	-1438.66162109375	1349.43896484375	20.94694709777815	-1397.337768554688	1351.603393554688	4.782322883605787	-1350.147338867188	1047.353271484375	-79.45910644531268	-1398.3759765625	1021.449584960938	-18.70508956909197	-1385.055908203125	1014.695129394531	-63.93960571289081	-1181.06591796875	888.772888183594	17.38504409790025	-1222.982055664063	851.9097290039065	-35.87258148193375	-1116.81982421875	839.4125976562502	26.15231132507311	-1183.348022460938	789.0654907226565	-25.83828544616714	-1512.791137695313	1197.546630859375	260.4536743164061	-1480.79443359375	1328.434814453125	237.2033386230468	-1433.602416992188	1338.425903320313	340.9585876464843	-1382.589477539063	1334.098754882813	367.1934204101561	-1485.474487304688	1041.032470703125	424.5592041015624	-1511.076782226563	1030.255004882813	351.492462158203	-1520.630737304688	1030.843017578125	396.7473144531249	-1481.490600585938	787.9373779296877	442.3705749511718	-1555.518798828125	813.6772460937502	449.9262084960937	-1510.070556640625	701.3240966796876	452.7732543945312	-1594.465209960938	758.3532714843751	454.9873657226562	
4	0.03	-1293.0615234375	907.7401123046877	59.56374359130845	-1478.76416015625	920.289978027344	146.196319580078	-1459.099853515625	917.2770996093752	256.792510986328	-1267.345581054688	896.7669067382815	280.499053955078	-1395.72998046875	838.108337402344	9.028097152709792	-1514.279541015625	443.7274780273439	71.9997482299803	-1557.75048828125	405.2815551757814	68.28699493408186	-1505.7197265625	370.4623107910157	124.6639251708983	-1703.229858398438	93.45387268066408	92.33331298828105	-1762.930908203125	61.42518615722658	124.8876724243162	-1577.981811523438	12.71235847473145	175.0218811035155	-1563.802124023438	29.86640167236329	119.6780776977537	-1609.859741210938	15.64928340911866	63.70010375976544	-1345.302124023438	809.415466308594	354.385528564453	-1149.755859375	463.6037597656251	284.2629699707031	-1154.00830078125	397.4039001464845	287.2285461425781	-1091.432495117188	408.7287902832032	242.8609313964843	-1025.927490234375	68.51080322265626	273.8189392089843	-1049.2919921875	16.99959945678711	225.722686767578	-865.6062011718752	89.83574676513673	213.5767059326171	-877.0452270507815	94.58414459228517	264.4125671386718	-909.507019042969	60.79187774658205	303.4943847656249	-1417.13818359375	1398.4609375	198.542022705078	-1495.744384765625	1163.824829101563	180.6059722900389	-1270.168090820313	1095.941528320313	171.9212493896483	-1296.801879882813	1313.954833984375	181.7568054199217	-1495.173950195313	1203.792358398438	100.290313720703	-1465.675048828125	1333.633056640625	104.5588226318358	-1421.017944335938	1347.828369140625	22.10905456542952	-1379.828979492188	1350.097900390625	5.864036560058426	-1331.668212890625	1046.482299804688	-79.69276428222673	-1380.585815429688	1020.179748535156	-19.45714187622088	-1366.543334960938	1013.568237304688	-64.54786682128925	-1161.96484375	889.3701782226565	18.05771446228013	-1202.837524414063	852.1488037109377	-35.84362030029313	-1097.048583984375	841.152282714844	27.27573585510241	-1162.304565429688	789.6548461914065	-25.6227474212648	-1493.879638671875	1195.401000976563	261.5813903808593	-1462.218139648438	1326.443969726563	238.4536590576171	-1414.658325195313	1336.390258789063	341.9804687499999	-1363.578247070313	1332.030151367188	368.0744628906249	-1467.94677734375	1039.62841796875	425.4805297851562	-1493.297485351563	1028.754272460938	352.4142761230468	-1503.121704101563	1029.653686523438	397.6074829101562	-1466.115600585938	786.6104125976565	444.4148864746093	-1539.93017578125	812.966247558594	451.0978088378906	-1495.650756835938	700.3980712890626	456.1090393066406	-1579.364013671875	758.2192382812501	456.7831726074218	
